#!OML:ASF H:\ManfredObstacles\Project 1\Capture day 2\Session 1\male.ASF
:FULLY-SPECIFIED
:DEGREES
806
root 1.49779 16.0021 -11.0689 -176.775 6.15334 173.316
lowerback -4.89926 0.680697 -7.21531
upperback 1.35395 1.63393 -2.55863
thorax 4.04872 0.730528 1.52633
lowerneck -36.0503 1.77033 4.70243
upperneck 38.4045 2.63362 -2.49612
head 21.962 1.83901 -1.17764
rclavicle 3.03147e-015 1.21259e-014
rhumerus -36.3778 -16.6972 -77.25
rradius 28.8569
rwrist 32.8572
rhand -1.65645 -6.30021
rfingers 7.12502
rthumb 24.0029 -34.8195
lclavicle 3.03147e-015 1.21259e-014
lhumerus -32.5036 25.0177 72.6714
lradius 17.2728
lwrist -61.6015
lhand 2.78108 5.91588
lfingers 7.12502
lthumb 28.2513 33.8059
rfemur -19.0609 -4.49445 14.4838
rtibia 72.5487
rfoot 11.3676 -14.3542
rtoes -15.5987
lfemur -13.9809 1.93319 -31.4821
ltibia 19.9683
lfoot 0.231004 12.1618
ltoes 1.80743
807
root 1.49247 16.0016 -11.1776 -176.782 5.86234 173.282
lowerback -4.84854 0.555865 -7.27719
upperback 1.39387 1.46656 -2.51923
thorax 4.07269 0.643547 1.58764
lowerneck -35.9683 1.74576 4.68883
upperneck 38.3957 2.6197 -2.50971
head 21.9327 1.83143 -1.18627
rclavicle -1.17283e-014 -3.69739e-014
rhumerus -36.6382 -17.117 -76.895
rradius 28.8981
rwrist 32.8668
rhand -1.7646 -6.35556
rfingers 7.12502
rthumb 23.8992 -34.8885
lclavicle -1.17283e-014 -3.69739e-014
lhumerus -31.7822 24.5359 73.3247
lradius 17.3339
lwrist -61.5526
lhand 2.71041 5.94322
lfingers 7.12502
lthumb 28.1838 33.8444
rfemur -20.3564 -4.57434 14.5659
rtibia 73.1869
rfoot 10.1033 -14.609
rtoes -16.0775
lfemur -13.4885 1.86201 -31.5853
ltibia 19.9172
lfoot -0.108136 12.1707
ltoes 1.51753
808
root 1.48699 15.9995 -11.2846 -176.773 5.55455 173.247
lowerback -4.79699 0.42691 -7.33516
upperback 1.41879 1.29244 -2.48185
thorax 4.08172 0.554114 1.64413
lowerneck -35.887 1.69864 4.65137
upperneck 38.4607 2.58822 -2.48877
head 21.9526 1.82539 -1.17606
rclavicle -1.05604e-014 -1.11319e-014
rhumerus -36.9126 -17.5837 -76.5136
rradius 28.9074
rwrist 32.8738
rhand -1.83278 -6.38907
rfingers 7.12502
rthumb 23.8338 -34.9305
lclavicle -1.05604e-014 -1.11319e-014
lhumerus -31.0636 24.0987 73.9471
lradius 17.4032
lwrist -61.4927
lhand 2.70443 5.96192
lfingers 7.12502
lthumb 28.1781 33.8641
rfemur -21.63 -4.59943 14.6422
rtibia 73.6252
rfoot 8.80468 -14.6992
rtoes -16.7811
lfemur -13.0552 1.73258 -31.6863
ltibia 19.9413
lfoot -0.432045 12.2237
ltoes 1.19108
809
root 1.48139 15.9957 -11.3897 -176.746 5.22918 173.211
lowerback -4.74106 0.294241 -7.38599
upperback 1.43395 1.11148 -2.44295
thorax 4.07922 0.461899 1.69768
lowerneck -35.812 1.65612 4.61789
upperneck 38.5315 2.56309 -2.46948
head 21.979 1.82234 -1.16551
rclavicle -5.40446e-015 8.54774e-015
rhumerus -37.1853 -18.0415 -76.1277
rradius 28.8941
rwrist 32.8292
rhand -1.86056 -6.43958
rfingers 7.12502
rthumb 23.8071 -34.9845
lclavicle -5.40446e-015 8.54774e-015
lhumerus -30.3344 23.6367 74.5815
lradius 17.4943
lwrist -61.3593
lhand 2.7556 5.96735
lfingers 7.12502
lthumb 28.227 33.8614
rfemur -22.8862 -4.576 14.7117
rtibia 73.8764
rfoot 7.47068 -14.6926
rtoes -17.5869
lfemur -12.6875 1.54828 -31.7846
ltibia 20.0484
lfoot -0.744688 12.3253
ltoes 0.845227
810
root 1.47643 15.9902 -11.4929 -176.711 4.88715 173.194
lowerback -4.6827 0.156116 -7.42414
upperback 1.45581 0.921604 -2.39613
thorax 4.08361 0.364815 1.7518
lowerneck -35.7565 1.61976 4.58108
upperneck 38.607 2.5425 -2.43822
head 22.014 1.8219 -1.14673
rclavicle -7.0817e-016 1.35174e-014
rhumerus -37.4257 -18.4784 -75.757
rradius 28.8568
rwrist 32.7672
rhand -1.86181 -6.47796
rfingers 7.12502
rthumb 23.8059 -35.023
lclavicle -7.0817e-016 1.35174e-014
lhumerus -29.5813 23.1473 75.2358
lradius 17.6156
lwrist -61.1258
lhand 2.87222 5.96849
lfingers 7.12502
lthumb 28.3384 33.8441
rfemur -24.1118 -4.50348 14.7959
rtibia 73.9418
rfoot 6.13104 -14.6627
rtoes -18.4137
lfemur -12.3798 1.32352 -31.8593
ltibia 20.2431
lfoot -1.05499 12.4685
ltoes 0.495173
811
root 1.47245 15.9831 -11.594 -176.669 4.53479 173.207
lowerback -4.61427 0.0214197 -7.43864
upperback 1.48021 0.732551 -2.33973
thorax 4.08537 0.268201 1.80281
lowerneck -35.7552 1.57617 4.53437
upperneck 38.7257 2.50938 -2.38564
head 22.0933 1.8204 -1.11797
rclavicle 6.31141e-015 3.22031e-014
rhumerus -37.6471 -18.8788 -75.4106
rradius 28.8019
rwrist 32.6567
rhand -1.84694 -6.51754
rfingers 7.12502
rthumb 23.8202 -35.0608
lclavicle 6.31141e-015 3.22031e-014
lhumerus -28.8082 22.5484 75.9391
lradius 17.7873
lwrist -60.6863
lhand 3.05316 5.99335
lfingers 7.12502
lthumb 28.5114 33.8401
rfemur -25.3028 -4.37711 14.9119
rtibia 73.8266
rfoot 4.82075 -14.6769
rtoes -19.3408
lfemur -12.1308 1.06874 -31.8958
ltibia 20.5235
lfoot -1.36174 12.6534
ltoes 0.146052
